<svg width="22" height="22" viewBox="0 0 22 22" fill="none" xmlns="http://www.w3.org/2000/svg">
<path d="M10.7622 0.00596892C10.1299 0.204443 9.35722 5.464 9.04988 8.06896C8.9263 9.06133 4.04473 4.96781 3.78131 5.46399C3.51788 5.96018 5.88873 11.7903 6.94245 11.9144C7.99616 12.0384 1.41046 13.8991 1.01532 14.1472C0.620176 14.3953 7.99617 14.1472 8.52303 14.1472C9.04989 14.1472 7.20589 21.3419 7.46931 21.9621C7.73274 22.5823 11.6842 15.3877 11.6842 14.8915C11.6842 14.3953 16.6893 20.8457 17.2162 20.7217C17.743 20.5976 14.977 13.651 14.7136 13.527C14.4502 13.4029 20.509 12.4106 20.6407 12.1625C20.7725 11.9144 14.7136 10.0537 14.7136 9.92965C14.7136 9.8056 19.3236 2.85903 19.1919 2.48689C19.0602 2.11475 12.7379 7.82087 12.7379 7.57278C12.7379 7.32469 11.5525 -0.242123 10.7622 0.00596892Z" fill="#4176AE"/>
</svg>
